<svg width="60" height="60" viewBox="0 0 60 60" fill="none" xmlns="http://www.w3.org/2000/svg">
<path d="M48.75 49.9219C48.1031 49.9219 47.5781 50.4469 47.5781 51.0938C47.5781 51.7406 48.1031 52.2656 48.75 52.2656C49.3969 52.2656 49.9219 51.7406 49.9219 51.0938C49.9219 50.4469 49.3969 49.9219 48.75 49.9219Z" fill="#393939"/>
<path d="M52.2656 5.55844V3.51562C52.2656 1.57711 50.6885 0 48.75 0H11.25C9.31148 0 7.73438 1.57711 7.73438 3.51562V5.55844C0.0905862 19.6753 0.000351563 19.2561 0 19.9206C0 19.9211 0 19.9214 0 19.9219V22.2656C0 24.2968 1.17445 26.1859 3.04688 27.2602V58.8281C3.04688 59.4752 3.57164 60 4.21875 60H55.7812C56.4284 60 56.9531 59.4752 56.9531 58.8281V27.2602C58.8067 26.1868 60 24.2755 60 22.2656V19.9219C60 19.9214 60 19.9211 60 19.9206C59.9996 19.249 59.8349 19.5376 52.2656 5.55844ZM56.8463 18.75H49.5947L45.6885 7.03125H50.4009L56.8463 18.75ZM40.5469 21.0938H47.5781V22.2656C47.5781 24.2041 46.001 25.7812 44.0625 25.7812C42.124 25.7812 40.5469 24.2041 40.5469 22.2656V21.0938ZM40.3677 18.75L38.4146 7.03125H43.2178L47.124 18.75H40.3677ZM10.0781 3.51562C10.0781 2.86945 10.6038 2.34375 11.25 2.34375H48.75C49.3962 2.34375 49.9219 2.86945 49.9219 3.51562V4.6875C48.806 4.6875 11.2027 4.6875 10.0781 4.6875V3.51562ZM38.2031 21.0938V22.2656C38.2031 24.2041 36.626 25.7812 34.6875 25.7812C32.749 25.7812 31.1719 24.2041 31.1719 22.2656V21.0938H38.2031ZM31.1719 18.75V7.03125H36.0386L37.9917 18.75H31.1719ZM22.0084 18.75L23.9616 7.03125H28.8281V18.75H22.0084ZM28.8281 21.0938V22.2656C28.8281 24.2041 27.251 25.7812 25.3125 25.7812C23.374 25.7812 21.7969 24.2041 21.7969 22.2656V21.0938H28.8281ZM12.8759 18.75L16.7821 7.03125H21.5854L19.6322 18.75H12.8759ZM19.4531 21.0938V22.2656C19.4531 24.2041 17.876 25.7812 15.9375 25.7812C13.999 25.7812 12.4219 24.2041 12.4219 22.2656V21.0938H19.4531ZM9.59906 7.03125H14.3115L10.4053 18.75H3.15375L9.59906 7.03125ZM2.34375 22.2656V21.0938H10.0781V22.2656C10.0781 24.1056 8.23488 25.7812 6.21094 25.7812C5.7007 25.7812 5.17195 25.6705 4.67977 25.4599C3.28254 24.8657 2.34375 23.5819 2.34375 22.2656ZM24.1406 57.6562H12.4219V47.5781H24.1406V57.6562ZM24.1406 45.2344H12.4219V35.1562H24.1406V45.2344ZM54.6094 57.6562H26.4844V33.9844C26.4844 33.3373 25.9596 32.8125 25.3125 32.8125H11.25C10.6029 32.8125 10.0781 33.3373 10.0781 33.9844V57.6562H5.39062V28.0677C5.66227 28.1046 5.9359 28.125 6.21094 28.125C7.75324 28.125 9.3123 27.514 10.488 26.4485C10.7481 26.213 10.9822 25.961 11.1923 25.697C12.258 27.1666 13.9875 28.125 15.9375 28.125C17.8522 28.125 19.5551 27.2018 20.625 25.7771C21.6949 27.2018 23.3978 28.125 25.3125 28.125C27.2272 28.125 28.9301 27.2018 30 25.7771C31.0699 27.2018 32.7728 28.125 34.6875 28.125C36.6022 28.125 38.3051 27.2018 39.375 25.7771C40.4449 27.2018 42.1478 28.125 44.0625 28.125C46.0125 28.125 47.742 27.1666 48.8077 25.697C49.0178 25.961 49.2519 26.2129 49.512 26.4485C50.6877 27.514 52.2468 28.125 53.7891 28.125C54.0635 28.125 54.3371 28.1053 54.6094 28.0682V57.6562ZM57.6562 22.2656C57.6562 23.6189 56.6825 24.9175 55.2335 25.4971C54.7596 25.6857 54.2738 25.7812 53.7891 25.7812C51.7651 25.7812 49.9219 24.1056 49.9219 22.2656V21.0938H57.6562V22.2656Z" fill="#393939"/>
<path d="M51.0938 45.2344H49.9219V33.9844C49.9219 33.3373 49.3971 32.8125 48.75 32.8125H34.6875C34.0404 32.8125 33.5156 33.3373 33.5156 33.9844V45.2344H32.3438C31.6966 45.2344 31.1719 45.7591 31.1719 46.4062C31.1719 47.0534 31.6966 47.5781 32.3438 47.5781H51.0938C51.7409 47.5781 52.2656 47.0534 52.2656 46.4062C52.2656 45.7591 51.7409 45.2344 51.0938 45.2344ZM47.5781 45.2344H35.8594V35.1562H47.5781V45.2344Z" fill="#393939"/>
<path d="M44.0625 49.9219H34.6875C34.0404 49.9219 33.5156 50.4466 33.5156 51.0938C33.5156 51.7409 34.0404 52.2656 34.6875 52.2656H44.0625C44.7096 52.2656 45.2344 51.7409 45.2344 51.0938C45.2344 50.4466 44.7096 49.9219 44.0625 49.9219Z" fill="#393939"/>
</svg>
