<svg width="64" height="60" viewBox="0 0 64 60" fill="none" xmlns="http://www.w3.org/2000/svg">
<path d="M55.6686 31.5114C53.9283 31.5114 52.5176 32.9221 52.5176 34.6624C52.5176 36.4027 53.9283 37.8134 55.6686 37.8134C57.4089 37.8134 58.8197 36.4027 58.8197 34.6624C58.8197 32.9221 57.4089 31.5114 55.6686 31.5114ZM55.6686 35.7128C55.0886 35.7128 54.6183 35.2425 54.6183 34.6624C54.6183 34.0823 55.0886 33.6121 55.6686 33.6121C56.2487 33.6121 56.719 34.0823 56.719 34.6624C56.719 35.2425 56.2487 35.7128 55.6686 35.7128Z" fill="#393939"/>
<path d="M62.9456 33.6207C62.4799 30.3943 59.9453 27.8597 56.7189 27.394V25.4845C56.7189 20.2159 52.7139 15.9263 47.7909 15.9263C43.0097 15.9263 39.0068 20.0857 38.8629 25.1988H38.9238L38.8629 25.2093V45.9085C38.8629 52.5257 33.9158 57.8993 27.8343 57.8993C21.7527 57.8993 16.8056 52.5184 16.8056 45.9085V44.1156C18.3286 44.1156 19.9566 43.0117 19.9566 39.9142V37.2725C26.6978 35.5489 31.5105 29.7605 31.5105 23.1979V21.0079H29.4098L29.3657 7.3376C29.3504 4.80718 27.5346 2.64661 25.0445 2.19614C24.5074 0.550639 22.738 -0.347935 21.0923 0.189319C19.4468 0.726441 18.5482 2.49589 19.0855 4.14152C19.6226 5.78702 21.3921 6.6856 23.0377 6.14834C23.9188 5.86068 24.6274 5.19778 24.9731 4.3378C26.3187 4.72066 27.2509 5.94484 27.2618 7.3439L27.3091 21.0079H25.2084V23.2283C25.1246 26.8818 22.6752 30.0568 19.1626 31.065C17.2831 31.6613 15.2651 31.6613 13.3856 31.065C9.87709 30.0534 7.43319 26.879 7.35244 23.2283V21.0079H4.2014V7.35336C4.20744 5.93368 5.1622 4.69322 6.53317 4.32415C7.17244 5.95153 9.00989 6.75243 10.6373 6.11316C12.2647 5.47389 13.0656 3.6363 12.4263 2.00905C11.787 0.381795 9.94943 -0.419227 8.32218 0.220042C7.44041 0.566525 6.76005 1.28956 6.46805 2.19089C3.95076 2.62101 2.10766 4.79956 2.1007 7.35336V21.0079H0V23.1926C0 29.7626 4.81585 35.5531 11.5538 37.2725V39.9142C11.5538 43.0117 13.1819 44.1156 14.7049 44.1156V45.9085C14.7049 53.6811 20.5942 60 27.8343 60C35.0743 60 40.9636 53.6738 40.9636 45.9085V25.2597C41.0686 21.2736 44.1336 18.0302 47.7909 18.0302C51.5553 18.0302 54.6182 21.3745 54.6182 25.4876V27.394C50.5991 27.9741 47.8114 31.7024 48.3914 35.7214C48.9715 39.7405 52.6998 42.5282 56.7189 41.9482C60.7379 41.3681 63.5256 37.6396 62.9456 33.6207ZM22.0573 4.20231C21.4773 4.20231 21.007 3.73201 21.007 3.15196C21.007 2.5719 21.4773 2.10161 22.0573 2.10161C22.6374 2.10161 23.1077 2.5719 23.1077 3.15196C23.1077 3.73201 22.6374 4.20231 22.0573 4.20231ZM9.45314 2.10161C10.0332 2.10161 10.5035 2.5719 10.5035 3.15196C10.5035 3.73201 10.0332 4.20231 9.45314 4.20231C8.87309 4.20231 8.40279 3.73201 8.40279 3.15196C8.40279 2.5719 8.87309 2.10161 9.45314 2.10161ZM2.1007 23.1926V23.1086H5.25175V23.2283C5.33052 27.7935 8.36774 31.7776 12.7491 33.0628C15.0451 33.7897 17.5095 33.7897 19.8054 33.0628C24.1889 31.7794 27.2289 27.7951 27.3091 23.2283V23.1086H29.4098V23.1926C29.4098 29.0357 24.9059 34.1772 18.6962 35.4208C17.2381 35.7128 15.7445 35.786 14.2648 35.6382C13.7777 35.5909 13.2935 35.5177 12.8143 35.4187C6.60459 34.1772 2.1007 29.0357 2.1007 23.1926ZM14.7049 42.0149C13.7596 42.0149 13.6545 40.5444 13.6545 39.9142V37.6853C13.7386 37.6958 13.8247 37.7 13.9098 37.7084C14.0148 37.72 14.1198 37.7284 14.2249 37.7379C14.7217 37.782 15.2227 37.8114 15.7279 37.8124H15.7804C16.2846 37.8124 16.7846 37.782 17.2782 37.7379C17.3833 37.7284 17.4946 37.72 17.6028 37.7084C17.6858 37.699 17.7719 37.6958 17.8549 37.6853V39.9142C17.8549 40.5444 17.7498 42.0149 16.8045 42.0149H14.7049ZM55.6685 39.9142C52.7681 39.9142 50.4168 37.5628 50.4168 34.6624C50.4168 31.762 52.7681 29.4107 55.6685 29.4107C58.5689 29.4107 60.9202 31.762 60.9202 34.6624C60.9168 37.5615 58.5675 39.9108 55.6685 39.9142Z" fill="#393939"/>
</svg>
