<svg width="60" height="60" viewBox="0 0 60 60" fill="none" xmlns="http://www.w3.org/2000/svg">
<path d="M8.67188 32.298C8.97995 32.298 9.28253 32.1739 9.50043 31.956C9.71832 31.7368 9.84375 31.4355 9.84375 31.1261C9.84375 30.818 9.71832 30.5154 9.50043 30.2975C9.28253 30.0797 8.97995 29.9542 8.67188 29.9542C8.3638 29.9542 8.06122 30.0797 7.84332 30.2975C7.62543 30.5154 7.5 30.818 7.5 31.1261C7.5 31.4355 7.62543 31.7377 7.84332 31.956C8.06122 32.1739 8.3638 32.298 8.67188 32.298Z" fill="#393939"/>
<path d="M59.3953 16.0831L48.685 10.1619C48.1187 9.84838 47.4055 10.0544 47.0924 10.6206C46.7793 11.1869 46.9849 11.9001 47.5511 12.2132L57.6562 17.7997V57.6554H52.5V20.8585C52.5 20.2112 51.9754 19.6866 51.3281 19.6866H8.67188C8.0246 19.6866 7.5 20.2112 7.5 20.8585V26.4382C7.5 27.0855 8.0246 27.6101 8.67188 27.6101C9.31915 27.6101 9.84375 27.0855 9.84375 26.4382V22.0304H50.1562V57.6554H45.2495V45.9366C45.2495 44.6444 44.198 43.5929 42.9057 43.5929H38.2182V31.8741C38.2182 30.5819 37.1667 29.5304 35.8745 29.5304H24.1557C22.863 29.5304 21.812 30.5819 21.812 31.8741V43.5929H17.1094C15.8171 43.5929 14.7656 44.6444 14.7656 45.9366V57.6554H9.84375V35.8132C9.84375 35.1659 9.31915 34.6413 8.67188 34.6413C8.0246 34.6413 7.5 35.1659 7.5 35.8132V57.6554H2.34375V17.7997L30 2.50997L39.3462 7.67721C39.9124 7.99032 40.6256 7.78478 40.9387 7.21853C41.2518 6.65228 41.0463 5.93908 40.48 5.62597L30.5672 0.145622C30.2142 -0.0498428 29.7858 -0.0498428 29.4328 0.145622L0.604706 16.0831C0.231628 16.2891 0 16.6819 0 17.1085V58.8273C0 59.4745 0.524597 59.9991 1.17188 59.9991H58.8281C59.4754 59.9991 60 59.4745 60 58.8273V17.1085C60 16.6819 59.7684 16.2891 59.3953 16.0831ZM35.8745 45.9366H38.2182V48.2804H35.8745V45.9366ZM31.1719 31.8741V34.2179H28.8281V31.8741H31.1719ZM24.1557 31.8741H26.4844V35.3898C26.4844 36.037 27.009 36.5616 27.6562 36.5616H32.3438C32.991 36.5616 33.5156 36.037 33.5156 35.3898V31.8741H35.8745L35.8759 43.5929C35.8759 43.5929 35.8754 43.5929 35.8745 43.5929H24.1557V31.8741ZM24.1557 45.9366V48.2804H21.812V45.9366H24.1557ZM17.1094 57.6554V45.9366H19.4682V49.4523C19.4682 50.0995 19.9928 50.6241 20.6401 50.6241H25.3276C25.9744 50.6241 26.4995 50.0995 26.4995 49.4523V45.9366H28.8281L28.8295 57.6554C28.8295 57.6554 28.829 57.6554 28.8281 57.6554H17.1094ZM31.187 57.6554V45.9366H33.5307V49.4523C33.5307 50.0995 34.0553 50.6241 34.7026 50.6241H39.3901C40.0369 50.6241 40.562 50.0995 40.562 49.4523V45.9366H42.9057L42.9071 57.6554C42.9071 57.6554 42.9066 57.6554 42.9057 57.6554H31.187Z" fill="#393939"/>
<path d="M44.0156 10.0923C44.3237 10.0923 44.6258 9.96686 44.8442 9.74896C45.0621 9.53061 45.1875 9.22849 45.1875 8.92041C45.1875 8.61188 45.0621 8.30975 44.8442 8.09186C44.6258 7.87396 44.3237 7.74854 44.0156 7.74854C43.7071 7.74854 43.405 7.87396 43.1871 8.09186C42.9692 8.30975 42.8438 8.61188 42.8438 8.92041C42.8438 9.22849 42.9692 9.53061 43.1871 9.74896C43.405 9.96686 43.7071 10.0923 44.0156 10.0923Z" fill="#393939"/>
<path d="M25.0781 11.9531C25.0781 14.6672 27.2859 16.875 30 16.875C32.7141 16.875 34.9219 14.6672 34.9219 11.9531C34.9219 9.23904 32.7141 7.03125 30 7.03125C27.2859 7.03125 25.0781 9.23904 25.0781 11.9531ZM32.5781 11.9531C32.5781 13.3745 31.4218 14.5312 30 14.5312C28.5782 14.5312 27.4219 13.3745 27.4219 11.9531C27.4219 10.5313 28.5782 9.375 30 9.375C31.4218 9.375 32.5781 10.5313 32.5781 11.9531Z" fill="#393939"/>
</svg>
