<svg width="71" height="60" viewBox="0 0 71 60" fill="none" xmlns="http://www.w3.org/2000/svg">
<path d="M65.6731 34.2672L63.8444 26.9524C64.3444 26.8462 64.7195 26.4027 64.7195 25.8712V24.6919C64.7195 22.1312 62.6362 20.048 60.0756 20.048H51.7462V17.6155C51.7462 16.3554 50.7212 15.3304 49.4611 15.3304H33.9732L43.385 11.5656C43.952 11.3389 44.2277 10.6953 44.001 10.1283C43.7743 9.56145 43.1311 9.28547 42.5637 9.51235L34.8574 12.5948C37.2057 11.0881 39.529 9.42987 40.4135 8.27021C42.1355 6.01255 41.6993 2.77495 39.4417 1.05298C37.184 -0.669123 33.9464 -0.232872 32.2245 2.02479C30.9663 3.67462 29.3063 8.31035 28.2319 11.5771C27.1574 8.31063 25.4974 3.67462 24.2393 2.02479C22.5174 -0.232872 19.2797 -0.668847 17.022 1.05298C14.7644 2.77481 14.3284 6.01242 16.0502 8.27021C16.9347 9.43001 19.2579 11.0881 21.6063 12.5948L13.9 9.51235C13.3327 9.28519 12.6895 9.56131 12.4627 10.1283C12.2358 10.6953 12.5117 11.3389 13.0787 11.5656L22.4905 15.3304H7.00262C5.74256 15.3304 4.71752 16.3554 4.71752 17.6155V37.6653C4.71752 38.2759 5.21252 38.771 5.82324 38.771C6.43383 38.771 6.92897 38.276 6.92897 37.6653V17.6155C6.92897 17.5748 6.96194 17.5418 7.00262 17.5418H49.461C49.5016 17.5418 49.5346 17.5748 49.5346 17.6155V37.6656C49.5346 38.2762 50.0296 38.7713 50.6403 38.7713C51.2509 38.7713 51.7461 38.2763 51.7461 37.6656V36.4121H64.7889C64.7901 36.4121 64.7911 36.4124 64.7923 36.4124C64.7936 36.4124 64.7947 36.4123 64.7959 36.4123C66.4008 36.4135 67.7635 37.467 68.2313 38.9185H64.7932C64.1826 38.9185 63.6874 39.4135 63.6874 40.0242V42.383C63.6874 44.2933 65.2415 45.8475 67.1519 45.8475H68.4051V50.7124H65.5139C64.5642 47.9702 61.9573 45.9948 58.8961 45.9948C55.8349 45.9948 53.2279 47.9701 52.2783 50.7124H51.7459V42.3828C51.7459 41.7722 51.2509 41.2771 50.6402 41.2771C50.0296 41.2771 49.5345 41.7721 49.5345 42.3828V50.7123H26.5939C25.6441 47.9701 23.0373 45.9946 19.9761 45.9946C16.9149 45.9946 14.3078 47.97 13.3582 50.7123H7.00262C6.96194 50.7123 6.92897 50.6793 6.92897 50.6386V48.2061H11.7203C12.3309 48.2061 12.826 47.7111 12.826 47.1003C12.826 46.4896 12.331 45.9946 11.7203 45.9946H1.10573C0.495143 45.9946 0 46.4896 0 47.1003C0 47.7111 0.495005 48.2061 1.10573 48.2061H4.71765V50.6386C4.71765 51.8987 5.7427 52.9237 7.00276 52.9237H12.9754C12.9751 52.9483 12.9734 52.9727 12.9734 52.9974C12.9734 56.8585 16.1149 60 19.9761 60C23.8372 60 26.9787 56.8585 26.9787 52.9974C26.9787 52.9725 26.977 52.9483 26.9768 52.9237H51.8953C51.895 52.9483 51.8934 52.9727 51.8934 52.9974C51.8934 56.8585 55.0348 60 58.896 60C62.7571 60 65.8986 56.8585 65.8986 52.9974C65.8986 52.9725 65.8969 52.9483 65.8967 52.9237H69.5107C70.1213 52.9237 70.6164 52.4287 70.6164 51.818V40.0241C70.6165 37.112 68.4681 34.6925 65.6731 34.2672ZM23.8469 11.3887C19.4853 8.67833 18.1916 7.43137 17.8086 6.92905C16.8262 5.64099 17.075 3.79379 18.3632 2.81136C18.8942 2.40642 19.5201 2.21071 20.1414 2.21071C21.0272 2.21071 21.9035 2.60875 22.481 3.36595C23.5506 4.76835 25.2257 9.48849 26.3316 12.8898C25.5853 12.4504 24.7274 11.9361 23.8469 11.3887ZM30.1324 12.8897C31.2383 9.48849 32.9134 4.76849 33.9828 3.36581C34.9653 2.07775 36.8125 1.82908 38.1005 2.81136C39.3887 3.79379 39.6374 5.64099 38.6551 6.92905C38.2721 7.43123 36.9784 8.67833 32.6171 11.3885C31.7368 11.9358 30.8789 12.4502 30.1324 12.8897ZM51.7462 22.2592H60.0756C61.4169 22.2592 62.5082 23.3504 62.5082 24.6917V24.7654H51.7462V22.2592ZM51.7462 34.2007V26.9768H61.5711L63.3771 34.2007H51.7462ZM19.9761 57.7887C17.3342 57.7887 15.1848 55.6393 15.1848 52.9974C15.1848 50.3555 17.3342 48.2061 19.9761 48.2061C22.618 48.2061 24.7674 50.3555 24.7674 52.9974C24.7674 55.6393 22.618 57.7887 19.9761 57.7887ZM58.8963 57.7887C56.2543 57.7887 54.105 55.6393 54.105 52.9974C54.105 50.3555 56.2543 48.2061 58.8963 48.2061C61.5382 48.2061 63.6876 50.3555 63.6876 52.9974C63.6876 55.6393 61.5382 57.7887 58.8963 57.7887ZM68.4052 43.6359H67.1521C66.4611 43.6359 65.8989 43.0737 65.8989 42.3827V41.1295H68.4051V43.6359H68.4052Z" fill="#393939"/>
<path d="M19.976 50.7123C18.716 50.7123 17.6909 51.7373 17.6909 52.9974C17.6909 54.2574 18.716 55.2825 19.976 55.2825C21.2361 55.2825 22.2611 54.2574 22.2611 52.9974C22.2611 51.7373 21.2361 50.7123 19.976 50.7123Z" fill="#393939"/>
<path d="M58.8964 50.7123C57.6364 50.7123 56.6113 51.7373 56.6113 52.9974C56.6113 54.2574 57.6364 55.2825 58.8964 55.2825C60.1565 55.2825 61.1815 54.2574 61.1815 52.9974C61.1815 51.7373 60.1565 50.7123 58.8964 50.7123Z" fill="#393939"/>
<path d="M45.923 45.9946H29.4114C28.8008 45.9946 28.3057 46.4896 28.3057 47.1004C28.3057 47.7111 28.8007 48.2061 29.4114 48.2061H45.923C46.5336 48.2061 47.0287 47.7111 47.0287 47.1004C47.0287 46.4896 46.5337 45.9946 45.923 45.9946Z" fill="#393939"/>
<path d="M17.6174 41.2771H3.46461C2.85403 41.2771 2.35889 41.7721 2.35889 42.3828C2.35889 42.9936 2.85389 43.4886 3.46461 43.4886H17.6174C18.228 43.4886 18.7232 42.9936 18.7232 42.3828C18.7232 41.7721 18.228 41.2771 17.6174 41.2771Z" fill="#393939"/>
<path d="M17.6173 24.7654H12.8997C12.2891 24.7654 11.7939 25.2604 11.7939 25.8711V35.3063C11.7939 35.9169 12.289 36.412 12.8997 36.412C13.5104 36.412 14.0054 35.917 14.0054 35.3063V31.6944H16.4379C17.0485 31.6944 17.5437 31.1993 17.5437 30.5886C17.5437 29.9779 17.0487 29.4829 16.4379 29.4829H14.0054V26.9768H17.6173C18.2279 26.9768 18.7231 26.4818 18.7231 25.8711C18.7229 25.2605 18.2279 24.7654 17.6173 24.7654Z" fill="#393939"/>
<path d="M26.3188 32.2128C27.4254 31.488 28.1583 30.2382 28.1583 28.8196C28.1583 26.584 26.3396 24.7654 24.104 24.7654H21.1555C20.5449 24.7654 20.0498 25.2604 20.0498 25.8711V35.3063C20.0498 35.9169 20.5448 36.412 21.1555 36.412C21.7663 36.412 22.2613 35.917 22.2613 35.3063V32.8737H24.102L26.1325 35.9195C26.3456 36.2391 26.696 36.412 27.0534 36.412C27.2643 36.412 27.4772 36.3519 27.6656 36.2261C28.1739 35.8875 28.3111 35.2009 27.9722 34.6929L26.3188 32.2128ZM24.104 30.6624H22.2613V26.9768H24.104C25.1203 26.9768 25.9468 27.8034 25.9468 28.8196C25.9468 29.8358 25.1203 30.6624 24.104 30.6624Z" fill="#393939"/>
<path d="M35.3082 34.2007H31.6963V31.6908C31.7207 31.6924 31.7451 31.6945 31.77 31.6945H34.1287C34.7393 31.6945 35.2345 31.1995 35.2345 30.5888C35.2345 29.978 34.7395 29.483 34.1287 29.483H31.77C31.745 29.483 31.7207 29.4851 31.6963 29.4868V26.9768H35.3082C35.9188 26.9768 36.414 26.4818 36.414 25.8711C36.414 25.2605 35.919 24.7654 35.3082 24.7654H30.5906C29.98 24.7654 29.4849 25.2604 29.4849 25.8711V35.3063C29.4849 35.9169 29.9799 36.412 30.5906 36.412H35.3082C35.9188 36.412 36.414 35.917 36.414 35.3063C36.414 34.6956 35.9188 34.2007 35.3082 34.2007Z" fill="#393939"/>
<path d="M43.5641 34.2007H39.9522V31.6945H41.2054C41.8159 31.6945 42.3111 31.1995 42.3111 30.5888C42.3111 29.978 41.8161 29.483 41.2054 29.483H39.9522V26.9768H43.5641C44.1747 26.9768 44.6698 26.4818 44.6698 25.8711C44.6698 25.2605 44.1748 24.7654 43.5641 24.7654H38.8465C38.2359 24.7654 37.7407 25.2604 37.7407 25.8711V35.3063C37.7407 35.9169 38.2357 36.412 38.8465 36.412H43.5641C44.1747 36.412 44.6698 35.917 44.6698 35.3063C44.6698 34.6956 44.1747 34.2007 43.5641 34.2007Z" fill="#393939"/>
</svg>
