<svg width="60" height="60" viewBox="0 0 60 60" fill="none" xmlns="http://www.w3.org/2000/svg">
<path d="M58.8665 9.11882L59.6564 8.32887C60.114 7.87126 60.114 7.12924 59.6564 6.67151C59.1988 6.21402 58.4568 6.21402 57.9991 6.67151L57.2091 7.46146L56.4196 6.67198C56.1999 6.45226 55.9018 6.32874 55.591 6.32874H54.3021L48.3166 0.343237C48.0967 0.123514 47.7987 0 47.4879 0H4.22033C1.89326 0 0 1.89314 0 4.22033V26.1811C0 28.5082 1.89326 30.4014 4.22033 30.4014H14.4296L7.56423 37.2669C6.76714 38.064 6.32816 39.1238 6.32816 40.2511C6.32816 41.3783 6.76714 42.4382 7.56423 43.2354L23.0928 58.7639C23.8899 59.561 24.9497 60 26.077 60C27.2044 60 28.2642 59.561 29.0613 58.7639L40.6916 47.1337C41.1494 46.6761 41.1494 45.9341 40.6916 45.4763C40.234 45.019 39.492 45.0188 39.0344 45.4763L27.4039 57.1066C27.0496 57.461 26.5782 57.6562 26.077 57.6562C25.5758 57.6562 25.1045 57.461 24.7501 57.1066L9.22148 41.578C8.86711 41.2237 8.67187 40.7523 8.67187 40.2511C8.67187 39.7498 8.86711 39.2786 9.22148 38.9242L39.473 8.67269H55.1057L55.552 9.11894L52.8422 11.8287C52.3832 11.6087 51.8695 11.4853 51.3274 11.4853C49.3889 11.4853 47.8118 13.0624 47.8118 15.0008C47.8118 16.9393 49.3889 18.5164 51.3274 18.5164C53.2659 18.5164 54.843 16.9393 54.843 15.0008C54.843 14.4587 54.7195 13.945 54.4994 13.4861L57.2092 10.7763L57.6555 11.2225V26.8551L46.4919 38.0189C46.0343 38.4765 46.0343 39.2185 46.4919 39.6762C46.9495 40.1337 47.6915 40.1337 48.1492 39.6762L59.6561 28.1694C59.8758 27.9495 59.9993 27.6515 59.9993 27.3408V10.7369C59.9993 10.4261 59.8758 10.1281 59.6561 9.9083L58.8665 9.11882ZM21.0441 21.0273C20.3977 21.0273 19.8719 20.5014 19.8719 19.855C19.8719 19.2085 20.3977 18.6827 21.0441 18.6827C21.6905 18.6827 22.2163 19.2085 22.2163 19.855C22.2163 20.5013 21.6905 21.0273 21.0441 21.0273ZM38.9876 6.32886C38.6769 6.32886 38.3787 6.45237 38.159 6.6721L24.531 20.3C24.5495 20.1541 24.5602 20.0057 24.5602 19.8549C24.5602 17.9162 22.983 16.3389 21.0442 16.3389C19.1056 16.3389 17.5283 17.9162 17.5283 19.8549C17.5283 21.7936 19.1055 23.3709 21.0442 23.3709C21.1951 23.3709 21.3434 23.3602 21.4893 23.3417L16.7734 28.0576H4.22033C3.18558 28.0576 2.34372 27.2157 2.34372 26.181V4.22033C2.34372 3.18558 3.18558 2.34372 4.22033 2.34372H47.0024L50.9876 6.32886H38.9876ZM51.3274 16.1725C50.6813 16.1725 50.1556 15.6468 50.1556 15.0006C50.1556 14.3545 50.6813 13.8288 51.3274 13.8288C51.5948 13.8288 51.8409 13.9198 52.0384 14.0712C52.0694 14.1118 52.1025 14.1514 52.1395 14.1884C52.1766 14.2254 52.2162 14.2585 52.2567 14.2895C52.4081 14.487 52.4992 14.7331 52.4992 15.0005C52.4993 15.6468 51.9736 16.1725 51.3274 16.1725Z" fill="#393939"/>
<path d="M38.9757 34.6676C39.2865 34.6676 39.5846 34.5441 39.8043 34.3244L42.4559 31.6727C42.9135 31.2151 42.9135 30.4731 42.4559 30.0154C41.9983 29.5579 41.2563 29.5579 40.7987 30.0154L38.9757 31.8384L33.1753 26.0381C32.7178 25.5806 31.9756 25.5806 31.518 26.0381C31.0604 26.4957 31.0604 27.2377 31.518 27.6954L38.1471 34.3244C38.3669 34.5441 38.6651 34.6676 38.9757 34.6676Z" fill="#393939"/>
<path d="M48.091 24.3809C47.6334 23.9234 46.8913 23.9234 46.4336 24.3809L44.9421 25.8724L43.2848 24.2153L44.7764 22.7237C45.234 22.2661 45.234 21.5241 44.7764 21.0664C44.3187 20.6089 43.5767 20.6089 43.119 21.0664L41.6275 22.5579L39.9702 20.9007L41.4618 19.4091C41.9194 18.9515 41.9195 18.2095 41.4618 17.7518C41.0041 17.2944 40.2621 17.2943 39.8045 17.7518L37.4843 20.0719C37.2646 20.2917 37.1411 20.5898 37.1411 20.9006C37.1411 21.2113 37.2646 21.5093 37.4843 21.7292L44.1134 28.3581C44.3422 28.5869 44.6422 28.7014 44.9421 28.7014C45.2419 28.7014 45.5419 28.5869 45.7707 28.3581L48.0908 26.038C48.5486 25.5805 48.5486 24.8385 48.091 24.3809Z" fill="#393939"/>
<path d="M35.1295 37.8545C35.7059 38.1484 36.4117 37.9189 36.7056 37.3422C36.9994 36.7656 36.7701 36.06 36.1933 35.7662L27.4098 31.2916C26.9575 31.0611 26.4083 31.1481 26.0493 31.5071C25.6904 31.866 25.6033 32.4154 25.8338 32.8676L30.3084 41.651C30.5154 42.0574 30.9267 42.2913 31.3535 42.2912C31.5324 42.2912 31.7142 42.2501 31.8845 42.1633C32.4611 41.8695 32.6905 41.1639 32.3968 40.5872L32.0375 39.8818L34.4242 37.495L35.1295 37.8545ZM30.9187 37.6861L29.5589 35.0167L32.2284 36.3766L30.9187 37.6861Z" fill="#393939"/>
<path d="M23.8949 46.9196C23.4373 47.3772 23.4372 48.1192 23.8949 48.5769C24.1238 48.8057 24.4237 48.9202 24.7235 48.9202C25.0234 48.9202 25.3234 48.8057 25.5522 48.5769L27.2095 46.9197C28.5802 45.549 28.5802 43.3187 27.2095 41.9478C25.9066 40.645 23.8279 40.5815 22.448 41.7552C22.4051 41.7877 22.3634 41.8221 22.3244 41.8613L22.2377 41.9478C22.0163 42.1692 21.722 42.2911 21.409 42.2911C21.096 42.2911 20.8018 42.1692 20.5804 41.9478C20.1235 41.4909 20.1235 40.7475 20.5804 40.2905L22.2377 38.6332C22.6953 38.1756 22.6954 37.4336 22.2377 36.9759C21.7801 36.5185 21.038 36.5184 20.5804 36.9759L18.9231 38.6331C17.5523 40.0039 17.5523 42.2343 18.9231 43.6051C19.5872 44.2691 20.4699 44.6347 21.4089 44.6347C22.3466 44.6347 23.2284 44.27 23.8923 43.6074C23.8931 43.6066 23.8941 43.6059 23.8949 43.6051C24.3517 43.1481 25.0952 43.1481 25.5522 43.6051C25.7735 43.8265 25.8954 44.1206 25.8954 44.4336C25.8954 44.7467 25.7735 45.041 25.5522 45.2622L23.8949 46.9196Z" fill="#393939"/>
<path d="M20.0786 7.56513C19.5151 7.24708 18.8002 7.44583 18.4821 8.0095L10.9236 21.3985C10.6054 21.9621 10.8043 22.6768 11.3679 22.995C11.5501 23.0978 11.7477 23.1466 11.943 23.1466C12.352 23.1466 12.7491 22.9322 12.9645 22.5506L20.523 9.16167C20.8411 8.598 20.6423 7.88317 20.0786 7.56513Z" fill="#393939"/>
<path d="M14.6688 10.5465C14.6688 8.60774 13.0916 7.03052 11.1528 7.03052C9.21406 7.03052 7.63672 8.60774 7.63672 10.5465C7.63672 12.4852 9.21394 14.0626 11.1527 14.0626C13.0914 14.0626 14.6688 12.4852 14.6688 10.5465ZM9.98046 10.5465C9.98046 9.90008 10.5063 9.37426 11.1527 9.37426C11.7991 9.37426 12.3249 9.90008 12.3249 10.5465C12.3249 11.193 11.7991 11.7188 11.1527 11.7188C10.5063 11.7188 9.98046 11.193 9.98046 10.5465Z" fill="#393939"/>
<path d="M43.5918 41.4041C43.2824 41.4041 42.9812 41.5294 42.7633 41.7475C42.5453 41.9654 42.4199 42.2677 42.4199 42.5759C42.4199 42.8842 42.5453 43.1866 42.7633 43.4044C42.9812 43.6224 43.2824 43.7478 43.5918 43.7478C43.9 43.7478 44.2023 43.6225 44.4203 43.4044C44.6383 43.1866 44.7637 42.8842 44.7637 42.5759C44.7637 42.2677 44.6383 41.9654 44.4203 41.7475C44.2023 41.5296 43.9 41.4041 43.5918 41.4041Z" fill="#393939"/>
</svg>
