<svg width="53" height="60" viewBox="0 0 53 60" fill="none" xmlns="http://www.w3.org/2000/svg">
<path d="M50.1006 10.3336L31.7835 0.414823C30.0459 -0.526372 27.6567 0.197624 26.7155 1.93522L16.0003 21.8451H2.96839C1.30319 21.8451 0 23.1483 0 24.8135V30.0263V57.0314C0 58.6966 1.30319 59.9998 2.96839 59.9998H44.5982C46.2634 59.9998 47.5666 58.6966 47.5666 57.0314V49.5018H48.7974C49.449 49.5018 49.9558 48.995 49.9558 48.3434V39.7278C49.9558 39.0762 49.449 38.5695 48.7974 38.5695H47.5666V30.0987C47.5666 28.7231 46.553 27.4923 45.2498 27.2027L51.621 15.4016C52.5622 13.5916 51.9106 11.3472 50.1006 10.3336ZM37.0686 5.9172L25.6295 27.1303H22.3715L34.607 4.614L37.0686 5.9172ZM28.8151 3.02121C29.1771 2.36961 30.0459 2.08002 30.6975 2.44201L32.5075 3.45561L19.7651 27.1303H15.7831L28.8151 3.02121ZM2.24439 24.7411C2.24439 24.5239 2.53399 24.1619 2.89599 24.1619H14.6971L13.1043 27.0579H2.89599C2.67879 27.0579 2.46159 27.0579 2.24439 27.1303V24.7411ZM45.1774 57.0314C45.1774 57.3934 44.8878 57.683 44.5258 57.683H2.89599C2.53399 57.683 2.24439 57.3934 2.24439 57.0314V30.0987C2.24439 29.7367 2.53399 29.4471 2.89599 29.4471H13.8283H18.4619H26.9327H43.2226H44.4534C44.8154 29.4471 45.105 29.7367 45.105 30.0987V38.5695H40.6886C38.7338 38.5695 37.2134 40.1622 37.2134 42.0446V46.0266C37.2134 47.9814 38.8062 49.5018 40.6886 49.5018H45.1774V57.0314ZM47.4942 40.8862H47.5666V47.185H47.4942H40.6886C40.037 47.185 39.5302 46.6782 39.5302 46.0266V42.0446C39.5302 41.393 40.037 40.8862 40.6886 40.8862H47.4942ZM49.5214 14.2432L42.571 27.1303H28.2359L39.0958 7.07559L48.9422 12.4332C49.6662 12.7228 49.8834 13.5916 49.5214 14.2432Z" fill="#393939"/>
<path d="M45.1051 13.1572L44.5259 12.8676C43.0779 12.0712 41.1231 12.6504 40.3267 14.0984L39.6027 15.474C39.2407 16.198 39.0959 17.0668 39.3855 17.8632C39.6027 18.6596 40.1819 19.3112 40.9059 19.6732L41.4851 19.9628C41.9195 20.18 42.4263 20.3248 42.9331 20.3248C44.0915 20.3248 45.1051 19.6732 45.6843 18.732L46.4083 17.3564C47.1323 15.836 46.5531 13.9536 45.1051 13.1572ZM44.3087 16.2704L43.5847 17.646C43.3675 18.008 42.8607 18.1528 42.4987 17.9356L41.9195 17.5736C41.7747 17.5012 41.6299 17.284 41.5575 17.1392C41.4851 16.922 41.4851 16.7048 41.6299 16.56L42.3539 15.1844C42.4987 14.9672 42.7883 14.75 43.0779 14.75C43.2227 14.75 43.2951 14.75 43.4399 14.8224L44.0191 15.112C44.3087 15.4016 44.4535 15.836 44.3087 16.2704Z" fill="#393939"/>
</svg>
