<svg width="66" height="66" viewBox="0 0 66 66" fill="none" xmlns="http://www.w3.org/2000/svg">
<g filter="url(#filter0_d)">
<circle cx="33" cy="33" r="30" fill="white"/>
</g>
<path d="M45.3563 27.6897H43.8214C43.8097 27.6766 43.7987 27.6631 43.7861 27.6506L35.4184 19.2828C35.0414 18.9057 34.43 18.9057 34.0529 19.2828C33.6759 19.6598 33.6759 20.2712 34.0529 20.6482L41.0943 27.6896H24.5148L31.5563 20.6482C31.9333 20.2712 31.9333 19.6598 31.5563 19.2828C31.1793 18.9057 30.5679 18.9057 30.1908 19.2828L21.823 27.6506C21.8104 27.6632 21.7995 27.6766 21.7877 27.6897H20.2529C19.0106 27.6897 18 28.7003 18 29.9425V31.2299C18 32.4131 18.9169 33.3862 20.0775 33.476L21.9281 44.5796C22.1619 45.9821 23.3634 47 24.7852 47H41.1067C42.5389 47 43.7716 45.9308 43.9742 44.5131L45.5511 33.4744C46.7025 33.3753 47.6091 32.4064 47.6091 31.2299V29.9425C47.6092 28.7003 46.5985 27.6897 45.3563 27.6897ZM45.6782 31.2299C45.6782 31.4074 45.5338 31.5517 45.3563 31.5517C45.0599 31.5517 36.1242 31.5517 35.7012 31.5517C35.168 31.5517 34.7357 31.984 34.7357 32.5172C34.7357 33.0504 35.168 33.4828 35.7012 33.4828H43.5995L42.0627 44.24C41.9951 44.7126 41.5842 45.069 41.1068 45.069H24.7852C24.3113 45.069 23.9108 44.7297 23.8328 44.2622L22.0363 33.4828H29.908C30.4412 33.4828 30.8736 33.0505 30.8736 32.5172C30.8736 31.984 30.4413 31.5517 29.908 31.5517C29.4844 31.5517 20.5481 31.5517 20.2529 31.5517C20.0754 31.5517 19.9311 31.4073 19.9311 31.2299V29.9425C19.9311 29.765 20.0755 29.6207 20.2529 29.6207H45.3563C45.5338 29.6207 45.6782 29.7651 45.6782 29.9425V31.2299Z" fill="#393939"/>
<path d="M27.0115 35.4138C26.4783 35.4138 26.046 35.8461 26.046 36.3793V42.1724C26.046 42.7056 26.4782 43.138 27.0115 43.138C27.5448 43.138 27.977 42.7057 27.977 42.1724V36.3793C27.977 35.8461 27.5448 35.4138 27.0115 35.4138Z" fill="#393939"/>
<path d="M32.8046 35.4138C32.2714 35.4138 31.8391 35.8461 31.8391 36.3793V42.1724C31.8391 42.7056 32.2713 43.138 32.8046 43.138C33.3378 43.138 33.7701 42.7057 33.7701 42.1724V36.3793C33.7701 35.8461 33.3378 35.4138 32.8046 35.4138Z" fill="#393939"/>
<path d="M38.5977 35.4138C38.0645 35.4138 37.6321 35.8461 37.6321 36.3793V42.1724C37.6321 42.7056 38.0644 43.138 38.5977 43.138C39.1309 43.138 39.5632 42.7057 39.5632 42.1724V36.3793C39.5632 35.8461 39.1309 35.4138 38.5977 35.4138Z" fill="#393939"/>
<defs>
<filter id="filter0_d" x="0" y="0" width="66" height="66" filterUnits="userSpaceOnUse" color-interpolation-filters="sRGB">
<feFlood flood-opacity="0" result="BackgroundImageFix"/>
<feColorMatrix in="SourceAlpha" type="matrix" values="0 0 0 0 0 0 0 0 0 0 0 0 0 0 0 0 0 0 127 0"/>
<feOffset/>
<feGaussianBlur stdDeviation="1.5"/>
<feColorMatrix type="matrix" values="0 0 0 0 0 0 0 0 0 0 0 0 0 0 0 0 0 0 0.15 0"/>
<feBlend mode="normal" in2="BackgroundImageFix" result="effect1_dropShadow"/>
<feBlend mode="normal" in="SourceGraphic" in2="effect1_dropShadow" result="shape"/>
</filter>
</defs>
</svg>
