<svg width="66" height="66" viewBox="0 0 66 66" fill="none" xmlns="http://www.w3.org/2000/svg">
<g filter="url(#filter0_d)">
<circle cx="33" cy="33" r="30" fill="white"/>
</g>
<path d="M33.3253 32.4511C35.3106 32.4511 37.0295 31.7391 38.4344 30.3342C39.8388 28.9295 40.5511 27.2109 40.5511 25.2253C40.5511 23.2405 39.839 21.5216 38.4342 20.1165C37.0293 18.7121 35.3104 18 33.3253 18C31.3397 18 29.6211 18.7121 28.2164 20.1167C26.8118 21.5213 26.0995 23.2402 26.0995 25.2253C26.0995 27.2109 26.8118 28.9298 28.2164 30.3344C29.6215 31.7388 31.3404 32.4511 33.3253 32.4511ZM29.4597 21.3598C30.5375 20.2819 31.8018 19.758 33.3253 19.758C34.8485 19.758 36.1131 20.2819 37.1911 21.3598C38.2689 22.4378 38.793 23.7024 38.793 25.2253C38.793 26.7488 38.2689 28.0131 37.1911 29.0911C36.1131 30.1692 34.8485 30.6931 33.3253 30.6931C31.8023 30.6931 30.538 30.1689 29.4597 29.0911C28.3817 28.0133 27.8575 26.7488 27.8575 25.2253C27.8575 23.7024 28.3817 22.4378 29.4597 21.3598Z" fill="#393939"/>
<path d="M45.9685 41.0685C45.928 40.4839 45.846 39.8463 45.7254 39.1729C45.6037 38.4945 45.4469 37.8532 45.2592 37.267C45.0651 36.6612 44.8017 36.0629 44.4755 35.4895C44.1374 34.8944 43.7401 34.3762 43.2942 33.9498C42.828 33.5038 42.2572 33.1451 41.5971 32.8835C40.9393 32.6232 40.2103 32.4914 39.4305 32.4914C39.1242 32.4914 38.8281 32.6171 38.2561 32.9895C37.9041 33.219 37.4923 33.4845 37.0327 33.7782C36.6397 34.0286 36.1073 34.2632 35.4498 34.4756C34.8082 34.6832 34.1568 34.7885 33.5137 34.7885C32.871 34.7885 32.2196 34.6832 31.5775 34.4756C30.9207 34.2634 30.388 34.0288 29.9957 33.7784C29.5405 33.4875 29.1285 33.222 28.7712 32.9892C28.1997 32.6168 27.9035 32.4912 27.5973 32.4912C26.8173 32.4912 26.0885 32.6232 25.4309 32.8837C24.7713 33.1449 24.2002 33.5035 23.7335 33.9501C23.2877 34.3767 22.8903 34.8947 22.5525 35.4895C22.2268 36.0629 21.9631 36.6609 21.769 37.2672C21.5816 37.8534 21.4248 38.4945 21.303 39.1729C21.1822 39.8454 21.1005 40.4833 21.06 41.0692C21.0201 41.6421 21 42.2383 21 42.8407C21 44.4067 21.4978 45.6745 22.4795 46.6095C23.449 47.5321 24.7317 48 26.292 48H40.7372C42.297 48 43.5797 47.5321 44.5494 46.6095C45.5313 45.6752 46.0291 44.407 46.0291 42.8405C46.0289 42.236 46.0085 41.6398 45.9685 41.0685ZM43.3373 45.3358C42.6966 45.9455 41.8461 46.2419 40.7369 46.2419H26.292C25.1826 46.2419 24.3321 45.9455 23.6917 45.336C23.0634 44.7379 22.758 43.9215 22.758 42.8407C22.758 42.2786 22.7766 41.7236 22.8137 41.1907C22.8498 40.668 22.9238 40.0937 23.0334 39.4835C23.1416 38.8809 23.2794 38.3153 23.4433 37.8033C23.6006 37.3123 23.815 36.8262 24.081 36.3579C24.3348 35.9116 24.6269 35.5287 24.9491 35.2201C25.2506 34.9315 25.6305 34.6953 26.0782 34.5182C26.4922 34.3543 26.9576 34.2646 27.4627 34.251C27.5243 34.2838 27.6339 34.3463 27.8115 34.4621C28.1729 34.6976 28.5895 34.9663 29.05 35.2604C29.5691 35.5914 30.2379 35.8903 31.0369 36.1482C31.8538 36.4124 32.6869 36.5465 33.5139 36.5465C34.3408 36.5465 35.1742 36.4124 35.9906 36.1485C36.7903 35.8901 37.4589 35.5914 37.9787 35.26C38.45 34.9588 38.8548 34.6978 39.2162 34.4621C39.3939 34.3465 39.5035 34.2838 39.5651 34.251C40.0704 34.2646 40.5358 34.3543 40.95 34.5182C41.3975 34.6953 41.7774 34.9317 42.0789 35.2201C42.4011 35.5284 42.6932 35.9114 42.947 36.3581C43.2132 36.8262 43.4279 37.3126 43.5849 37.8031C43.749 38.3158 43.887 38.8811 43.9951 39.4833C44.1045 40.0946 44.1786 40.6691 44.2148 41.191V41.1914C44.2521 41.7222 44.2709 42.277 44.2711 42.8407C44.2709 43.9217 43.9655 44.7379 43.3373 45.3358Z" fill="#393939"/>
<defs>
<filter id="filter0_d" x="0" y="0" width="66" height="66" filterUnits="userSpaceOnUse" color-interpolation-filters="sRGB">
<feFlood flood-opacity="0" result="BackgroundImageFix"/>
<feColorMatrix in="SourceAlpha" type="matrix" values="0 0 0 0 0 0 0 0 0 0 0 0 0 0 0 0 0 0 127 0"/>
<feOffset/>
<feGaussianBlur stdDeviation="1.5"/>
<feColorMatrix type="matrix" values="0 0 0 0 0 0 0 0 0 0 0 0 0 0 0 0 0 0 0.15 0"/>
<feBlend mode="normal" in2="BackgroundImageFix" result="effect1_dropShadow"/>
<feBlend mode="normal" in="SourceGraphic" in2="effect1_dropShadow" result="shape"/>
</filter>
</defs>
</svg>
