<svg width="66" height="66" viewBox="0 0 66 66" fill="none" xmlns="http://www.w3.org/2000/svg">
<g filter="url(#filter0_d)">
<circle cx="33" cy="33" r="30" fill="white"/>
</g>
<path d="M31.4498 20C25.1365 20 20 25.1365 20 31.4498C20 37.7633 25.1365 42.8995 31.4498 42.8995C37.7633 42.8995 42.8995 37.7633 42.8995 31.4498C42.8995 25.1365 37.7633 20 31.4498 20ZM31.4498 40.7858C26.3019 40.7858 22.1138 36.5976 22.1138 31.4498C22.1138 26.302 26.3019 22.1138 31.4498 22.1138C36.5976 22.1138 40.7857 26.3019 40.7857 31.4498C40.7857 36.5976 36.5976 40.7858 31.4498 40.7858Z" fill="#393939"/>
<path d="M45.6903 44.1957L39.6308 38.1362C39.2179 37.7233 38.5492 37.7233 38.1363 38.1362C37.7234 38.5487 37.7234 39.2181 38.1363 39.6306L44.1958 45.6902C44.4023 45.8966 44.6725 45.9999 44.9431 45.9999C45.2133 45.9999 45.4839 45.8966 45.6903 45.6902C46.1032 45.2777 46.1032 44.6083 45.6903 44.1957Z" fill="#393939"/>
<defs>
<filter id="filter0_d" x="0" y="0" width="66" height="66" filterUnits="userSpaceOnUse" color-interpolation-filters="sRGB">
<feFlood flood-opacity="0" result="BackgroundImageFix"/>
<feColorMatrix in="SourceAlpha" type="matrix" values="0 0 0 0 0 0 0 0 0 0 0 0 0 0 0 0 0 0 127 0"/>
<feOffset/>
<feGaussianBlur stdDeviation="1.5"/>
<feColorMatrix type="matrix" values="0 0 0 0 0 0 0 0 0 0 0 0 0 0 0 0 0 0 0.15 0"/>
<feBlend mode="normal" in2="BackgroundImageFix" result="effect1_dropShadow"/>
<feBlend mode="normal" in="SourceGraphic" in2="effect1_dropShadow" result="shape"/>
</filter>
</defs>
</svg>
